<?xml version="1.0" encoding="UTF-8" standalone="no"?><!DOCTYPE svg PUBLIC "-//W3C//DTD SVG 1.1//EN" "http://www.w3.org/Graphics/SVG/1.1/DTD/svg11.dtd"><svg width="100%" height="100%" viewBox="0 0 417 409" version="1.1" xmlns="http://www.w3.org/2000/svg" xmlns:xlink="http://www.w3.org/1999/xlink" xml:space="preserve" xmlns:serif="http://www.serif.com/" style="fill-rule:evenodd;clip-rule:evenodd;stroke-linejoin:round;stroke-miterlimit:2;"><path d="M208.333,0c-115.033,0 -208.333,93.283 -208.333,208.333c0,92.05 59.688,170.138 142.483,197.692c10.4,1.925 13.767,-4.533 13.767,-10.017l0,-38.787c-57.95,12.604 -70.017,-24.584 -70.017,-24.584c-9.479,-24.079 -23.141,-30.483 -23.141,-30.483c-18.909,-12.937 1.441,-12.658 1.441,-12.658c20.917,1.458 31.925,21.475 31.925,21.475c18.575,31.841 48.734,22.642 60.625,17.308c1.859,-13.454 7.259,-22.654 13.23,-27.846c-46.267,-5.296 -94.913,-23.158 -94.913,-102.966c0,-22.763 8.142,-41.338 21.458,-55.921c-2.154,-5.263 -9.287,-26.459 2.03,-55.138c-0,0 17.5,-5.591 57.312,21.354c16.613,-4.62 34.425,-6.929 52.133,-7.016c17.709,0.087 35.538,2.396 52.188,7.016c39.775,-26.945 57.242,-21.354 57.242,-21.354c11.333,28.696 4.2,49.896 2.045,55.138c13.371,14.583 21.442,33.175 21.442,55.921c0,80.016 -48.733,97.637 -95.121,102.796c7.463,6.458 14.288,19.129 14.288,38.575l-0,57.17c-0,5.538 3.333,12.046 13.904,10c82.729,-27.587 142.346,-105.662 142.346,-197.675c-0,-115.05 -93.284,-208.333 -208.334,-208.333Z" style="fill:#9c00c8;fill-rule:nonzero;"/></svg>