<?xml version="1.0" encoding="UTF-8" standalone="no"?><!DOCTYPE svg PUBLIC "-//W3C//DTD SVG 1.1//EN" "http://www.w3.org/Graphics/SVG/1.1/DTD/svg11.dtd"><svg width="100%" height="100%" viewBox="0 0 100 100" version="1.1" xmlns="http://www.w3.org/2000/svg" xmlns:xlink="http://www.w3.org/1999/xlink" xml:space="preserve" xmlns:serif="http://www.serif.com/" style="fill-rule:evenodd;clip-rule:evenodd;stroke-linejoin:round;stroke-miterlimit:2;"><path d="M92.867,87.5l-85.734,0c-3.937,0 -7.133,-3.196 -7.133,-7.133l0,-56.567c0,-3.938 3.196,-7.133 7.133,-7.133l85.734,-0c3.937,-0 7.133,3.195 7.133,7.133l0,56.567c0,3.937 -3.196,7.133 -7.133,7.133Zm-42.867,-25.358l-38.925,-27.013l-0.083,48.204l77.85,0l-0,-48.204l-38.842,27.013Zm36.954,-41.309l-74.121,0l37.167,25.955c-0,-0 26.05,-18.359 36.954,-25.955Z" style="fill:#333;"/></svg>