<?xml version="1.0" encoding="UTF-8" standalone="no"?><!DOCTYPE svg PUBLIC "-//W3C//DTD SVG 1.1//EN" "http://www.w3.org/Graphics/SVG/1.1/DTD/svg11.dtd"><svg width="100%" height="100%" viewBox="0 0 417 417" version="1.1" xmlns="http://www.w3.org/2000/svg" xmlns:xlink="http://www.w3.org/1999/xlink" xml:space="preserve" xmlns:serif="http://www.serif.com/" style="fill-rule:evenodd;clip-rule:evenodd;stroke-linejoin:round;stroke-miterlimit:2;"><path d="M386.946,364.583l-357.225,0c-16.404,0 -29.721,-13.316 -29.721,-29.72l0,-235.696c0,-16.409 13.317,-29.721 29.721,-29.721l357.225,-0c16.404,-0 29.721,13.312 29.721,29.721l-0,235.696c-0,16.404 -13.317,29.72 -29.721,29.72Zm-178.613,-105.658l-162.187,-112.554l-0.346,200.85l324.375,-0l0,-200.85l-161.842,112.554Zm153.975,-172.121l-308.837,0l154.862,108.146c0,-0 108.542,-76.496 153.975,-108.146Z" style="fill:#9c00c8;"/></svg>