<?xml version="1.0" encoding="UTF-8" standalone="no"?><!DOCTYPE svg PUBLIC "-//W3C//DTD SVG 1.1//EN" "http://www.w3.org/Graphics/SVG/1.1/DTD/svg11.dtd"><svg width="100%" height="100%" viewBox="0 0 417 417" version="1.1" xmlns="http://www.w3.org/2000/svg" xmlns:xlink="http://www.w3.org/1999/xlink" xml:space="preserve" xmlns:serif="http://www.serif.com/" style="fill-rule:evenodd;clip-rule:evenodd;stroke-linejoin:round;stroke-miterlimit:2;"><path d="M208.333,37.554c55.625,-0.004 62.221,0.209 84.2,1.213c56.459,2.57 82.834,29.358 85.4,85.4c1.009,21.962 1.2,28.558 1.2,84.183c0,55.642 -0.208,62.225 -1.2,84.183c-2.587,55.992 -28.887,82.834 -85.4,85.4c-21.979,1.009 -28.541,1.217 -84.2,1.217c-55.625,0 -62.221,-0.208 -84.183,-1.217c-56.596,-2.587 -82.829,-29.495 -85.4,-85.416c-1.008,-21.963 -1.217,-28.542 -1.217,-84.184c0,-55.625 0.229,-62.204 1.217,-84.183c2.587,-56.025 28.887,-82.829 85.4,-85.4c21.979,-0.988 28.558,-1.196 84.183,-1.196Zm0,-37.554c-56.579,0 -63.662,0.242 -85.883,1.25c-75.663,3.471 -117.713,45.45 -121.183,121.179c-1.025,22.242 -1.267,29.325 -1.267,85.904c-0,56.58 0.242,63.68 1.25,85.905c3.471,75.658 45.45,117.708 121.179,121.179c22.242,1.008 29.325,1.25 85.904,1.25c56.579,-0 63.68,-0.242 85.904,-1.25c75.588,-3.471 117.742,-45.45 121.163,-121.179c1.025,-22.225 1.267,-29.325 1.267,-85.905c-0,-56.579 -0.242,-63.662 -1.25,-85.883c-3.404,-75.592 -45.434,-117.712 -121.163,-121.183c-22.241,-1.025 -29.341,-1.267 -85.921,-1.267Zm0,101.354c-59.079,0 -106.979,47.9 -106.979,106.979c0,59.08 47.9,106.996 106.979,106.996c59.079,0 106.979,-47.9 106.979,-106.996c0,-59.079 -47.899,-106.979 -106.979,-106.979Zm0,176.425c-38.35,0 -69.446,-31.079 -69.446,-69.446c0,-38.35 31.096,-69.445 69.446,-69.445c38.35,-0 69.446,31.095 69.446,69.445c0,38.367 -31.096,69.446 -69.446,69.446Zm111.217,-205.646c-13.821,0.005 -25.021,11.2 -25.021,25c0,13.805 11.2,25 25.021,25c13.8,0 24.979,-11.195 24.979,-25c0,-13.8 -11.179,-24.995 -24.979,-24.995l0,-0.005Z" style="fill:#9c00c8;fill-rule:nonzero;"/></svg>