<?xml version="1.0" encoding="UTF-8" standalone="no"?><!DOCTYPE svg PUBLIC "-//W3C//DTD SVG 1.1//EN" "http://www.w3.org/Graphics/SVG/1.1/DTD/svg11.dtd"><svg width="100%" height="100%" viewBox="0 0 100 100" version="1.1" xmlns="http://www.w3.org/2000/svg" xmlns:xlink="http://www.w3.org/1999/xlink" xml:space="preserve" xmlns:serif="http://www.serif.com/" style="fill-rule:evenodd;clip-rule:evenodd;stroke-linejoin:round;stroke-miterlimit:2;"><path d="M50,9.013c13.35,-0.001 14.933,0.05 20.208,0.291c13.55,0.617 19.88,7.046 20.496,20.496c0.242,5.271 0.288,6.854 0.288,20.204c-0,13.354 -0.05,14.934 -0.288,20.204c-0.621,13.438 -6.933,19.88 -20.496,20.496c-5.275,0.242 -6.85,0.292 -20.208,0.292c-13.35,-0 -14.933,-0.05 -20.204,-0.292c-13.583,-0.621 -19.879,-7.079 -20.496,-20.5c-0.242,-5.271 -0.292,-6.85 -0.292,-20.204c0,-13.35 0.055,-14.929 0.292,-20.204c0.621,-13.446 6.933,-19.879 20.496,-20.496c5.275,-0.237 6.854,-0.287 20.204,-0.287Zm0,-9.013c-13.579,0 -15.279,0.058 -20.612,0.3c-18.159,0.833 -28.251,10.908 -29.084,29.083c-0.246,5.338 -0.304,7.038 -0.304,20.617c-0,13.579 0.058,15.283 0.3,20.617c0.833,18.158 10.908,28.25 29.083,29.083c5.338,0.242 7.038,0.3 20.617,0.3c13.579,0 15.283,-0.058 20.617,-0.3c18.141,-0.833 28.258,-10.908 29.079,-29.083c0.246,-5.334 0.304,-7.038 0.304,-20.617c0,-13.579 -0.058,-15.279 -0.3,-20.612c-0.817,-18.142 -10.904,-28.251 -29.079,-29.084c-5.338,-0.246 -7.042,-0.304 -20.621,-0.304Zm-0,24.325c-14.179,0 -25.675,11.496 -25.675,25.675c-0,14.179 11.496,25.679 25.675,25.679c14.179,0 25.675,-11.496 25.675,-25.679c-0,-14.179 -11.496,-25.675 -25.675,-25.675Zm-0,42.342c-9.204,-0 -16.667,-7.459 -16.667,-16.667c0,-9.204 7.463,-16.667 16.667,-16.667c9.204,0 16.667,7.463 16.667,16.667c-0,9.208 -7.463,16.667 -16.667,16.667Zm26.692,-49.355c-3.317,0.001 -6.005,2.688 -6.005,6c0,3.313 2.688,6 6.005,6c3.312,0 5.995,-2.687 5.995,-6c0,-3.312 -2.683,-5.999 -5.995,-5.999Z" style="fill:#333;fill-rule:nonzero;"/></svg>