<?xml version="1.0" encoding="UTF-8" standalone="no"?><!DOCTYPE svg PUBLIC "-//W3C//DTD SVG 1.1//EN" "http://www.w3.org/Graphics/SVG/1.1/DTD/svg11.dtd"><svg width="100%" height="100%" viewBox="0 0 100 100" version="1.1" xmlns="http://www.w3.org/2000/svg" xmlns:xlink="http://www.w3.org/1999/xlink" xml:space="preserve" xmlns:serif="http://www.serif.com/" style="fill-rule:evenodd;clip-rule:evenodd;stroke-linejoin:round;stroke-miterlimit:2;"><path d="M0.238,100l7.029,-25.679c-4.338,-7.517 -6.617,-16.038 -6.613,-24.775c0.013,-27.317 22.242,-49.546 49.554,-49.546c13.255,0.004 25.696,5.167 35.055,14.533c9.354,9.367 14.504,21.817 14.5,35.059c-0.013,27.321 -22.242,49.55 -49.555,49.55c-8.291,-0.005 -16.462,-2.084 -23.7,-6.034l-26.271,6.892Zm27.488,-15.862c6.983,4.145 13.65,6.629 22.467,6.633c22.7,-0 41.191,-18.475 41.204,-41.188c0.008,-22.758 -18.396,-41.208 -41.171,-41.216c-22.717,-0 -41.196,18.475 -41.204,41.183c-0.004,9.271 2.712,16.213 7.275,23.475l-4.163,15.2l15.592,-4.087Zm47.446,-22.767c-0.309,-0.517 -1.134,-0.825 -2.375,-1.446c-1.238,-0.621 -7.325,-3.617 -8.463,-4.029c-1.133,-0.413 -1.958,-0.621 -2.787,0.621c-0.825,1.237 -3.2,4.029 -3.921,4.854c-0.721,0.825 -1.446,0.929 -2.683,0.308c-1.238,-0.621 -5.23,-1.925 -9.959,-6.146c-3.679,-3.283 -6.166,-7.337 -6.887,-8.579c-0.721,-1.237 -0.075,-1.908 0.541,-2.525c0.559,-0.554 1.238,-1.446 1.859,-2.171c0.629,-0.716 0.833,-1.233 1.25,-2.062c0.412,-0.825 0.208,-1.55 -0.104,-2.171c-0.313,-0.617 -2.788,-6.712 -3.817,-9.192c-1.008,-2.412 -2.029,-2.087 -2.788,-2.125l-2.375,-0.041c-0.825,-0 -2.166,0.308 -3.3,1.55c-1.133,1.241 -4.333,4.233 -4.333,10.329c0,6.096 4.438,11.983 5.054,12.808c0.621,0.825 8.729,13.334 21.15,18.696c2.954,1.275 5.263,2.037 7.059,2.608c2.966,0.942 5.666,0.809 7.8,0.492c2.379,-0.354 7.325,-2.996 8.358,-5.888c1.033,-2.895 1.033,-5.375 0.721,-5.891Z" style="fill:#333;fill-rule:nonzero;"/></svg>