<?xml version="1.0" encoding="UTF-8" standalone="no"?><!DOCTYPE svg PUBLIC "-//W3C//DTD SVG 1.1//EN" "http://www.w3.org/Graphics/SVG/1.1/DTD/svg11.dtd"><svg width="100%" height="100%" viewBox="0 0 417 417" version="1.1" xmlns="http://www.w3.org/2000/svg" xmlns:xlink="http://www.w3.org/1999/xlink" xml:space="preserve" xmlns:serif="http://www.serif.com/" style="fill-rule:evenodd;clip-rule:evenodd;stroke-linejoin:round;stroke-miterlimit:2;"><path d="M0.992,416.667l29.287,-106.996c-18.075,-31.321 -27.571,-66.825 -27.554,-103.229c0.054,-113.821 92.675,-206.442 206.475,-206.442c55.229,0.017 107.067,21.529 146.063,60.554c38.975,39.029 60.433,90.904 60.416,146.079c-0.054,113.838 -92.675,206.459 -206.479,206.459c-34.546,-0.021 -68.592,-8.684 -98.75,-25.142l-109.462,28.717l0.004,-0Zm114.533,-66.092c29.096,17.271 56.875,27.621 93.613,27.637c94.583,0 171.629,-76.979 171.683,-171.616c0.033,-94.825 -76.65,-171.7 -171.546,-171.734c-94.654,0 -171.65,76.98 -171.683,171.596c-0.017,38.629 11.3,67.554 30.312,97.813l-17.346,63.333l64.967,-17.029Zm197.692,-94.862c-1.288,-2.155 -4.725,-3.438 -9.896,-6.025c-5.159,-2.588 -30.521,-15.071 -35.263,-16.788c-4.721,-1.721 -8.158,-2.587 -11.612,2.588c-3.438,5.154 -13.334,16.787 -16.338,20.225c-3.004,3.437 -6.025,3.87 -11.179,1.283c-5.158,-2.588 -21.791,-8.021 -41.496,-25.608c-15.329,-13.68 -25.691,-30.571 -28.695,-35.746c-3.005,-5.154 -0.313,-7.95 2.254,-10.521c2.329,-2.308 5.158,-6.025 7.746,-9.046c2.62,-2.983 3.47,-5.137 5.208,-8.592c1.717,-3.437 0.867,-6.458 -0.433,-9.045c-1.305,-2.571 -11.617,-27.967 -15.905,-38.3c-4.2,-10.05 -8.454,-8.696 -11.616,-8.855l-9.896,-0.17c-3.438,-0 -9.025,1.283 -13.75,6.458c-4.721,5.171 -18.054,17.637 -18.054,43.037c-0,25.4 18.491,49.93 21.058,53.367c2.588,3.438 36.371,55.558 88.125,77.9c12.308,5.313 21.929,8.488 29.413,10.867c12.358,3.925 23.608,3.371 32.5,2.05c9.912,-1.475 30.52,-12.484 34.825,-24.534c4.304,-12.062 4.304,-22.395 3.004,-24.545Z" style="fill:#9c00c8;fill-rule:nonzero;"/></svg>