<?xml version="1.0" encoding="UTF-8" standalone="no"?><!DOCTYPE svg PUBLIC "-//W3C//DTD SVG 1.1//EN" "http://www.w3.org/Graphics/SVG/1.1/DTD/svg11.dtd"><svg width="100%" height="100%" viewBox="0 0 3000 3000" version="1.1" xmlns="http://www.w3.org/2000/svg" xmlns:xlink="http://www.w3.org/1999/xlink" xml:space="preserve" xmlns:serif="http://www.serif.com/" style="fill-rule:evenodd;clip-rule:evenodd;stroke-linejoin:round;stroke-miterlimit:2;"><rect x="-202.075" y="-202.072" width="3404.15" height="3404.14" style="fill:none;fill-rule:nonzero;"/><path d="M2360.91,2752.5l-860.923,231.813l-860.935,-231.813l-198.668,-2152.31l2119.22,-0l-198.693,2152.31Z" style="fill:#2062af;fill-rule:nonzero;"/><path d="M1499.98,774.523l0,2024.9l1.947,0.531l696.708,-187.607l160.814,-1837.82l-859.469,0Z" style="fill:#3c9cd7;fill-rule:nonzero;"/><path d="M1011.38,283.972l-0,-128.105l186.905,0l-0,-140.177l-327.083,-0l0,396.198l327.083,-0l-0,-127.916l-186.905,0Zm523.127,-128.105l130.671,0l0,-140.177l-327.114,-0l0,140.177c43.764,43.764 66.587,64.71 129.881,128.004c-37,0 -129.881,0.133 -129.881,0.127l0,127.89l327.114,-0l0,-127.916l-130.671,-128.105Zm463.625,0l130.665,0l0,-140.177l-327.126,-0l-0,140.177c43.763,43.764 66.599,64.71 129.893,128.004c-36.988,0 -129.893,0.133 -129.893,0.127l-0,127.89l327.133,-0l-0,-127.916l-130.672,-128.105Z" style="fill-rule:nonzero;"/><path d="M1499.22,1312.69l-616.191,256.627l20.435,254.08l595.756,-254.724l633.731,-270.95l26.274,-259.914l-660.005,274.881Z" style="fill:#fff;fill-rule:nonzero;"/><path d="M883.019,1569.31l20.434,254.08l595.757,-254.724l-0,-255.983l-616.191,256.627Z" style="fill:url(#_Linear1);fill-rule:nonzero;"/><path d="M2159.22,1037.81l-660.005,274.875l0,255.983l633.731,-270.95l26.274,-259.908Z" style="fill:url(#_Linear2);fill-rule:nonzero;"/><path d="M883.967,1569.31l20.441,254.08l914.11,2.914l-20.447,338.769l-300.795,84.683l-289.153,-73.008l-17.521,-210.273l-268.674,0l35.048,405.938l543.22,160.618l540.275,-157.704l70.095,-806.017l-1226.6,0Z" style="fill:url(#_Linear3);fill-rule:nonzero;"/><path d="M1499.22,1569.31l-616.191,0l20.435,254.08l595.756,1.903l0,-255.983Zm0,679.637l-2.92,0.816l-289.115,-73.009l-17.52,-210.272l-268.668,-0l35.041,405.937l543.182,160.618l0,-284.09Z" style="fill-opacity:0.05;fill-rule:nonzero;"/><path d="M827.531,1037.81l1331.69,0l-26.274,259.914l-1273.3,0l-32.121,-259.914Z" style="fill:url(#_Linear4);fill-rule:nonzero;"/><path d="M1499.22,1037.81l-671.685,0l32.121,259.914l639.564,0l0,-259.914Z" style="fill-opacity:0.05;fill-rule:nonzero;"/><g id="css"></g><defs><linearGradient id="_Linear1" x1="0" y1="0" x2="1" y2="0" gradientUnits="userSpaceOnUse" gradientTransform="matrix(3.12718e-14,-510.707,510.707,3.12718e-14,1191.11,1823.39)"><stop offset="0" style="stop-color:#d1d3d4;stop-opacity:0"/><stop offset="0.39" style="stop-color:#d1d3d4;stop-opacity:0"/><stop offset="1" style="stop-color:#d1d3d4;stop-opacity:1"/></linearGradient><linearGradient id="_Linear2" x1="0" y1="0" x2="1" y2="0" gradientUnits="userSpaceOnUse" gradientTransform="matrix(3.25056e-14,-530.857,530.857,3.25056e-14,1829.21,1568.67)"><stop offset="0" style="stop-color:#d1d3d4;stop-opacity:0"/><stop offset="0.39" style="stop-color:#d1d3d4;stop-opacity:0"/><stop offset="1" style="stop-color:#d1d3d4;stop-opacity:1"/></linearGradient><linearGradient id="_Linear3" x1="0" y1="0" x2="1" y2="0" gradientUnits="userSpaceOnUse" gradientTransform="matrix(1226.59,0,0,1226.59,883.967,2051.17)"><stop offset="0" style="stop-color:#e8e7e5;stop-opacity:1"/><stop offset="1" style="stop-color:#fff;stop-opacity:1"/></linearGradient><linearGradient id="_Linear4" x1="0" y1="0" x2="1" y2="0" gradientUnits="userSpaceOnUse" gradientTransform="matrix(1331.68,0,0,1331.68,827.531,1167.76)"><stop offset="0" style="stop-color:#e8e7e5;stop-opacity:1"/><stop offset="1" style="stop-color:#fff;stop-opacity:1"/></linearGradient></defs></svg>