<?xml version="1.0" encoding="UTF-8" standalone="no"?><!DOCTYPE svg PUBLIC "-//W3C//DTD SVG 1.1//EN" "http://www.w3.org/Graphics/SVG/1.1/DTD/svg11.dtd"><svg width="100%" height="100%" viewBox="0 0 3000 3000" version="1.1" xmlns="http://www.w3.org/2000/svg" xmlns:xlink="http://www.w3.org/1999/xlink" xml:space="preserve" xmlns:serif="http://www.serif.com/" style="fill-rule:evenodd;clip-rule:evenodd;stroke-linejoin:round;stroke-miterlimit:2;"><path d="M1839.2,1083.6l-300.043,279.367l-278.515,-562.018l143.879,-323.151c36.365,-64.46 95.839,-65.311 132.204,0l302.475,605.802Z" style="fill:#ffa000;fill-rule:nonzero;"/><path d="M1539.28,1362.84l-1122.33,1043.89l843.817,-1605.78l278.515,561.896Z" style="fill:#f57f17;fill-rule:nonzero;"/><path d="M2168.19,656.335c53.757,-51.203 109.095,-33.933 123.082,38.798l291.772,1697.48l-967.75,580.991c-33.933,18.973 -123.933,26.392 -123.933,26.392c-0,-0 -81.852,-9.973 -113.231,-27.243l-961.182,-566.031l1751.24,-1750.39Z" style="fill:#ffca28;fill-rule:nonzero;"/><path d="M1260.77,800.944l-843.817,1605.78l376.057,-2347.07c14.108,-72.73 55.338,-80.149 92.554,-15.689l375.206,756.978Z" style="fill:#ffa000;fill-rule:nonzero;"/></svg>