<?xml version="1.0" encoding="UTF-8" standalone="no"?><!DOCTYPE svg PUBLIC "-//W3C//DTD SVG 1.1//EN" "http://www.w3.org/Graphics/SVG/1.1/DTD/svg11.dtd"><svg width="100%" height="100%" viewBox="0 0 3000 3000" version="1.1" xmlns="http://www.w3.org/2000/svg" xmlns:xlink="http://www.w3.org/1999/xlink" xml:space="preserve" xmlns:serif="http://www.serif.com/" style="fill-rule:evenodd;clip-rule:evenodd;stroke-linejoin:round;stroke-miterlimit:2;"><clipPath id="_clip1"><rect id="html" x="437.4" y="0" width="2125.2" height="3000"/></clipPath><g clip-path="url(#_clip1)"><g><path d="M630.803,2758.92l-193.403,-2169.27l2125.2,-0l-193.615,2168.93l-870.289,241.277l-867.893,-240.934Z" style="fill:#e44d26;fill-rule:nonzero;"/><path d="M1500,2815.44l703.229,-194.972l165.466,-1853.44l-868.695,-0l0,2048.41Z" style="fill:#f16529;fill-rule:nonzero;"/><path d="M1500,1571.58l-352.049,0l-24.319,-272.441l376.368,0l0,-266.056l-667.139,0l6.376,71.378l65.388,733.165l595.375,0l0,-266.046Zm0,690.961l-1.169,0.318l-296.301,-80.013l-18.943,-212.182l-267.07,-0l37.278,417.742l544.988,151.29l1.217,-0.343l0,-276.812Z" style="fill:#ebebeb;fill-rule:nonzero;"/><path d="M635.131,0.138l135.201,-0l-0,133.578l123.677,0l-0,-133.578l135.206,-0l0,404.512l-135.206,0l-0,-135.452l-123.677,-0l-0,135.452l-135.192,0l-0.009,-404.512Zm571.896,134.148l-119.026,0l0,-134.148l373.325,-0l0,134.148l-119.079,0l0,270.364l-135.22,0l-0,-270.364Zm313.534,-134.148l140.993,-0l86.722,142.137l86.641,-142.137l141.036,-0l0,404.512l-134.67,0l-0,-200.503l-93.021,143.828l-2.323,-0l-93.084,-143.828l0,200.503l-132.294,0l0,-404.512Zm522.669,-0l135.24,-0l0,270.808l190.148,0l-0,133.704l-325.388,0l0,-404.512Z" style="fill-rule:nonzero;"/><path d="M1499.08,1571.58l0,266.046l327.619,0l-30.888,345.055l-296.731,80.082l0,276.793l545.423,-151.15l3.99,-44.963l62.529,-700.417l6.492,-71.446l-618.434,0Zm0,-538.497l0,266.056l642.646,0l5.328,-59.805l12.123,-134.873l6.366,-71.378l-666.463,0Z" style="fill:#fff;fill-rule:nonzero;"/></g></g><g id="html1" serif:id="html"></g></svg>