<?xml version="1.0" encoding="UTF-8" standalone="no"?><!DOCTYPE svg PUBLIC "-//W3C//DTD SVG 1.1//EN" "http://www.w3.org/Graphics/SVG/1.1/DTD/svg11.dtd"><svg width="100%" height="100%" viewBox="0 0 3000 3000" version="1.1" xmlns="http://www.w3.org/2000/svg" xmlns:xlink="http://www.w3.org/1999/xlink" xml:space="preserve" xmlns:serif="http://www.serif.com/" style="fill-rule:evenodd;clip-rule:evenodd;stroke-linejoin:round;stroke-miterlimit:2;"><clipPath id="_clip1"><rect id="react" x="-0" y="-209.207" width="3000" height="3418.41"/></clipPath><g clip-path="url(#_clip1)"><g><path d="M3000,1500.31c0,-198.736 -248.879,-387.077 -630.453,-503.873c88.056,-388.912 48.92,-698.329 -123.522,-797.391c-39.747,-23.237 -86.221,-34.244 -136.975,-34.244l0,136.364c28.129,-0 50.754,5.503 69.711,15.899c83.163,47.696 119.241,229.311 91.113,462.902c-6.727,57.481 -17.734,118.019 -31.187,179.78c-119.853,-29.352 -250.713,-51.977 -388.3,-66.653c-82.552,-113.127 -168.161,-215.858 -254.382,-305.748c199.348,-185.283 386.465,-286.792 513.657,-286.792l-0,-136.363c-168.162,-0 -388.3,119.853 -610.885,327.762c-222.585,-206.686 -442.723,-325.316 -610.885,-325.316l0,136.363c126.58,0 314.309,100.897 513.657,284.958c-85.609,89.889 -171.219,192.009 -252.548,305.136c-138.198,14.676 -269.058,37.301 -388.911,67.265c-14.065,-61.15 -24.46,-120.465 -31.798,-177.334c-28.74,-233.592 6.726,-415.206 89.278,-463.514c18.345,-11.007 42.194,-15.899 70.322,-15.899l0,-136.364c-51.365,0 -97.839,11.007 -138.198,34.244c-171.83,99.062 -210.354,407.868 -121.687,795.556c-380.351,117.408 -628.007,305.137 -628.007,503.262c-0,198.736 248.879,387.077 630.453,503.873c-88.056,388.911 -48.92,698.328 123.522,797.391c39.747,23.236 86.221,34.243 137.586,34.243c168.162,0 388.3,-119.853 610.885,-327.762c222.585,206.686 442.723,325.316 610.885,325.316c51.365,0 97.839,-11.007 138.198,-34.243c171.83,-99.063 210.354,-407.868 121.687,-795.557c379.128,-116.796 626.784,-305.137 626.784,-503.261Zm-796.168,-407.868c-22.625,78.883 -50.754,160.212 -82.552,241.541c-25.071,-48.92 -51.366,-97.84 -80.106,-146.759c-28.129,-48.92 -58.092,-96.617 -88.055,-143.09c86.832,12.841 170.607,28.74 250.713,48.308Zm-280.065,651.243c-47.697,82.552 -96.617,160.824 -147.371,233.592c-91.113,7.949 -183.449,12.23 -276.396,12.23c-92.336,-0 -184.672,-4.281 -275.173,-11.619c-50.754,-72.768 -100.286,-150.428 -147.982,-232.368c-46.474,-80.106 -88.667,-161.435 -127.192,-243.376c37.913,-81.94 80.718,-163.881 126.58,-243.987c47.697,-82.552 96.617,-160.823 147.371,-233.591c91.113,-7.95 183.449,-12.23 276.396,-12.23c92.336,-0 184.672,4.28 275.173,11.618c50.754,72.768 100.286,150.428 147.982,232.369c46.474,80.106 88.667,161.435 127.192,243.375c-38.525,81.941 -80.718,163.881 -126.58,243.987Zm197.513,-79.494c33.021,81.94 61.15,163.881 84.387,243.375c-80.106,19.568 -164.493,36.078 -251.937,48.92c29.963,-47.085 59.927,-95.394 88.056,-144.925c28.128,-48.919 54.423,-98.451 79.494,-147.37Zm-620.057,652.466c-56.869,-58.704 -113.738,-124.134 -169.996,-195.679c55.035,2.446 111.292,4.281 168.162,4.281c57.48,-0 114.349,-1.223 169.995,-4.281c-55.034,71.545 -111.903,136.975 -168.161,195.679Zm-454.953,-360.171c-86.833,-12.842 -170.608,-28.74 -250.714,-48.308c22.626,-78.883 50.755,-160.212 82.552,-241.541c25.072,48.919 51.366,97.839 80.106,146.759c28.741,48.919 58.093,96.616 88.056,143.09Zm451.896,-1272.52c56.869,58.704 113.738,124.134 169.995,195.679c-55.034,-2.446 -111.292,-4.28 -168.161,-4.28c-57.481,-0 -114.35,1.223 -169.996,4.28c55.035,-71.545 111.904,-136.975 168.162,-195.679Zm-452.508,360.172c-29.963,47.085 -59.926,95.393 -88.055,144.924c-28.129,48.92 -54.423,97.84 -79.495,146.759c-33.02,-81.94 -61.149,-163.881 -84.386,-243.375c80.106,-18.957 164.492,-35.467 251.936,-48.308Zm-553.404,765.593c-216.469,-92.336 -356.502,-213.412 -356.502,-309.417c0,-96.005 140.033,-217.693 356.502,-309.417c52.589,-22.626 110.07,-42.805 169.385,-61.761c34.855,119.853 80.717,244.598 137.586,372.401c-56.257,127.191 -101.508,251.325 -135.752,370.566c-60.538,-18.956 -118.018,-39.747 -171.219,-62.372Zm328.985,873.828c-83.163,-47.697 -119.241,-229.311 -91.113,-462.903c6.727,-57.48 17.734,-118.019 31.187,-179.78c119.853,29.352 250.713,51.977 388.3,66.653c82.552,113.127 168.161,215.859 254.382,305.748c-199.348,185.284 -386.465,286.792 -513.657,286.792c-27.517,-0.611 -50.754,-6.115 -69.099,-16.51Zm1450.47,-465.96c28.74,233.591 -6.726,415.206 -89.278,463.514c-18.345,11.007 -42.194,15.899 -70.322,15.899c-126.58,-0 -314.309,-100.897 -513.657,-284.958c85.609,-89.889 171.219,-192.009 252.548,-305.136c138.198,-14.676 269.058,-37.301 388.911,-67.265c14.065,61.761 25.072,121.077 31.798,177.946Zm235.426,-407.868c-52.589,22.625 -110.069,42.805 -169.384,61.761c-34.856,-119.853 -80.718,-244.599 -137.587,-372.401c56.258,-127.191 101.508,-251.325 135.752,-370.567c60.538,18.956 118.019,39.747 171.831,62.373c216.469,92.336 356.502,213.412 356.502,309.417c-0.612,96.005 -140.644,217.692 -357.114,309.417Z" style="fill:#61dafb;fill-rule:nonzero;"/><circle cx="1499.39" cy="1500.31" r="279.454" style="fill:#61dafb;"/></g></g><g id="react1" serif:id="react"></g></svg>