<?xml version="1.0" encoding="UTF-8" standalone="no"?><!DOCTYPE svg PUBLIC "-//W3C//DTD SVG 1.1//EN" "http://www.w3.org/Graphics/SVG/1.1/DTD/svg11.dtd"><svg width="100%" height="100%" viewBox="0 0 3000 3000" version="1.1" xmlns="http://www.w3.org/2000/svg" xmlns:xlink="http://www.w3.org/1999/xlink" xml:space="preserve" xmlns:serif="http://www.serif.com/" style="fill-rule:evenodd;clip-rule:evenodd;stroke-linejoin:round;stroke-miterlimit:2;"><path d="M1500,921.91c169.135,6.531 328.282,72.075 502.838,187.024c91.143,7.605 97.063,-460.745 73.427,-1030.17c576.401,230.598 788.117,648.218 726.791,1222.08l196.944,120.59l-169.135,154.823l169.135,67.654l-180.844,204.262l180.844,59.848c-18.099,66.427 -49.988,113.549 -102.782,131.404c-165.443,49.084 -332.224,106.191 -501.137,176.092c-291.588,182.866 -601.55,361.829 -801.916,563.015c-22.309,91.571 -53.382,140.673 -94.165,142.716c-40.783,-2.043 -71.856,-51.145 -94.165,-142.716c-200.366,-201.186 -510.328,-380.149 -801.916,-563.015c-168.913,-69.901 -335.694,-127.008 -501.137,-176.092c-52.794,-17.855 -84.683,-64.977 -102.782,-131.404l180.844,-59.848l-180.844,-204.262l169.135,-67.654l-169.135,-154.823l196.944,-120.59c-61.326,-573.86 150.39,-991.48 726.791,-1222.08c-23.636,569.43 -17.716,1037.78 73.427,1030.17c174.556,-114.949 333.703,-180.493 502.838,-187.024" style="fill:#5d5473;"/></svg>